<svg width="191" height="24" viewBox="0 0 191 24" fill="none" xmlns="http://www.w3.org/2000/svg">
<g clip-path="url(#clip0_104_190)">
<path d="M31.69 22.82C30.12 22.23 28.89 21.51 28 20.62C27.84 20.46 27.8 20.26 27.97 20.06L30.45 17.21C30.58 17.05 30.74 17.01 30.94 17.18C32.86 18.72 34.79 19.47 36.74 19.47C38.99 19.47 40.36 18.42 40.36 16.82C40.36 15.41 39.45 14.69 36.94 14.33L35.77 14.17C31.11 13.51 28.76 11.29 28.76 7.49001C28.76 5.43001 29.48 3.79001 30.88 2.54001C32.31 1.29001 34.24 0.670013 36.62 0.670013C39.65 0.670013 42.16 1.46001 44.15 3.00001C44.35 3.13001 44.38 3.29001 44.22 3.49001L42.23 6.47001C42.1 6.63001 41.94 6.67001 41.77 6.57001C40.04 5.42001 38.31 4.87001 36.62 4.87001C34.7 4.87001 33.65 5.85001 33.65 7.29001C33.65 8.60001 34.63 9.39001 37.11 9.75001L38.28 9.91001C42.94 10.53 45.26 12.79 45.26 16.66C45.26 20.85 42.13 23.67 36.55 23.67C34.89 23.68 33.26 23.38 31.69 22.82Z" fill="#41B5D8"/>
<path d="M48.85 21.45C47.32 19.94 46.53 17.85 46.53 15.13V1.36C46.53 1.13 46.63 1.03 46.86 1.03H51C51.23 1.03 51.33 1.13 51.33 1.36V15.25C51.33 17.87 52.8 19.41 55.05 19.41C57.3 19.41 58.74 17.87 58.74 15.25V1.36C58.74 1.13 58.84 1.03 59.07 1.03H63.21C63.44 1.03 63.54 1.13 63.54 1.36V15.12C63.54 17.84 62.76 19.94 61.19 21.44C59.66 22.91 57.6 23.67 55.06 23.67C52.47 23.68 50.41 22.92 48.85 21.45Z" fill="#41B5D8"/>
<path d="M66.03 1.36C66.03 1.13 66.13 1.03 66.36 1.03H75C79.7 1.03 82.08 3.29 82.08 6.96C82.08 9.16 81.23 10.76 79.5 11.71V11.78C81.1 12.4 82.47 14.34 82.47 16.83C82.47 21.15 79.7 23.32 74.77 23.32H66.36C66.13 23.32 66.03 23.22 66.03 22.99V1.36ZM74.41 10.14C76.24 10.14 77.31 9.19 77.31 7.52C77.31 5.91 76.23 4.93 74.41 4.93H71.02C70.89 4.93 70.82 5 70.82 5.13V9.95C70.82 10.08 70.89 10.15 71.02 10.15H74.41V10.14ZM70.83 19.22C70.83 19.35 70.9 19.42 71.03 19.42H74.68C76.64 19.42 77.68 18.37 77.68 16.64C77.68 14.9 76.6 13.86 74.68 13.86H71.03C70.9 13.86 70.83 13.93 70.83 14.06V19.22Z" fill="#41B5D8"/>
<path d="M96.55 23.32C96.32 23.32 96.16 23.22 96.06 22.99L92.24 14.83H89.27C89.14 14.83 89.07 14.9 89.07 15.03V22.99C89.07 23.22 88.97 23.32 88.74 23.32H84.6C84.37 23.32 84.27 23.22 84.27 22.99V1.36C84.27 1.13 84.37 1.03 84.6 1.03H93.44C95.69 1.03 97.52 1.69 98.89 2.96C100.29 4.24 100.98 5.88 100.98 7.94C100.98 10.79 99.51 13.05 97.03 14.13L101.4 22.91C101.5 23.07 101.4 23.3 101.17 23.3H96.55V23.32ZM93.2 10.73C95.03 10.73 96.2 9.65 96.2 7.95C96.2 6.28 95.03 5.2 93.2 5.2H89.29C89.16 5.2 89.09 5.27 89.09 5.4V10.54C89.09 10.67 89.16 10.74 89.29 10.74H93.2V10.73Z" fill="#41B5D8"/>
<path d="M109.08 1.36C109.15 1.13 109.28 1.03 109.5 1.03H113.61C113.84 1.03 113.97 1.13 114.03 1.36L121.53 22.98C121.6 23.21 121.53 23.31 121.3 23.31H117.06C116.83 23.31 116.7 23.21 116.64 22.98L115.37 19.08H107.61L106.37 22.98C106.3 23.21 106.17 23.31 105.95 23.31H101.68C101.45 23.31 101.39 23.21 101.45 22.98L109.08 1.36ZM108.95 14.99H114.07L111.56 7.19H111.46L108.95 14.99Z" fill="#41B5D8"/>
<path d="M125.71 23.32C125.48 23.32 125.38 23.22 125.38 22.99V14.44L118.82 1.37001C118.72 1.14001 118.82 1.04001 119.05 1.04001H123.29C123.52 1.04001 123.68 1.14001 123.78 1.37001L127.79 9.50001H127.89L131.9 1.37001C132 1.14001 132.16 1.04001 132.39 1.04001H136.5C136.73 1.04001 136.83 1.20001 136.73 1.37001L130.18 14.44V22.99C130.18 23.22 130.08 23.32 129.85 23.32H125.71Z" fill="#41B5D8"/>
<path d="M141.62 1.36C141.69 1.13 141.82 1.03 142.04 1.03H146.15C146.38 1.03 146.51 1.13 146.57 1.36L154.07 22.98C154.14 23.21 154.07 23.31 153.84 23.31H149.6C149.37 23.31 149.24 23.21 149.18 22.98L147.91 19.08H140.15L138.91 22.98C138.84 23.21 138.71 23.31 138.49 23.31H134.22C133.99 23.31 133.93 23.21 133.99 22.98L141.62 1.36ZM141.49 14.99H146.61L144.1 7.19H144L141.49 14.99Z" fill="#41B5D8"/>
<path d="M154.92 1.36C154.92 1.13 155.02 1.03 155.25 1.03H163.5C167.54 1.03 170.09 2.7 171.16 6.04C171.55 7.29 171.75 9.32 171.75 12.17C171.75 15.02 171.55 17.05 171.16 18.3C170.08 21.64 167.54 23.31 163.5 23.31H155.25C155.02 23.31 154.92 23.21 154.92 22.98V1.36ZM159.72 18.83C159.72 18.96 159.79 19.03 159.92 19.03H162.43C164.68 19.03 166.05 18.21 166.54 16.57C166.77 15.88 166.9 14.44 166.9 12.18C166.9 9.92 166.77 8.48 166.54 7.79C166.05 6.15 164.68 5.33 162.43 5.33H159.92C159.79 5.33 159.72 5.4 159.72 5.53V18.83Z" fill="#41B5D8"/>
<path d="M173.25 12.18C173.25 9.43002 173.45 7.40002 173.87 6.09002C175.01 2.55002 178.01 0.680023 181.96 0.680023C185.91 0.680023 188.91 2.55002 190.05 6.09002C190.47 7.40002 190.67 9.43002 190.67 12.18C190.67 14.93 190.47 16.96 190.05 18.27C188.91 21.81 185.91 23.68 181.96 23.68C178.01 23.68 175.01 21.81 173.87 18.27C173.45 16.96 173.25 14.93 173.25 12.18ZM185.81 12.18C185.81 9.72002 185.68 8.12002 185.45 7.40002C184.93 5.76002 183.75 4.94002 181.96 4.94002C180.17 4.94002 178.99 5.76002 178.47 7.40002C178.24 8.12002 178.11 9.73002 178.11 12.18C178.11 14.63 178.24 16.24 178.47 16.96C178.99 18.6 180.17 19.42 181.96 19.42C183.75 19.42 184.93 18.6 185.45 16.96C185.68 16.24 185.81 14.63 185.81 12.18Z" fill="#41B5D8"/>
<path d="M12.0398 17.03C14.8012 17.03 17.0398 14.7825 17.0398 12.01C17.0398 9.23755 14.8012 6.99002 12.0398 6.99002C9.27837 6.99002 7.03979 9.23755 7.03979 12.01C7.03979 14.7825 9.27837 17.03 12.0398 17.03Z" fill="#41B5D8"/>
<path d="M1.50989 10.64C5.63989 5.66002 15.4699 3.06002 22.4899 10.66C22.7999 10.99 23.3199 10.63 23.2499 10.18C22.7699 7.08002 19.6399 0.680023 11.9399 0.680023C4.41989 0.680023 1.47989 6.64002 0.669889 10.07C0.559889 10.57 1.17989 11.04 1.50989 10.64Z" fill="#41B5D8"/>
<path d="M22.4998 13.72C18.3698 18.7 8.53982 21.3 1.51982 13.69C1.20982 13.36 0.689825 13.72 0.759825 14.17C1.23982 17.27 4.36982 23.67 12.0698 23.67C19.5898 23.67 22.5298 17.71 23.3398 14.28C23.4498 13.78 22.8298 13.32 22.4998 13.72Z" fill="#41B5D8"/>
</g>
<defs>
<clipPath id="clip0_104_190">
<rect width="191" height="24" fill="white"/>
</clipPath>
</defs>
</svg>
