<svg width="240" height="217" viewBox="0 0 240 217" fill="none" xmlns="http://www.w3.org/2000/svg">
<path d="M120 56.0624C127.671 47.1169 138.51 41.452 150.268 40.2428C162.025 39.0335 173.8 42.3727 183.149 49.5678C192.498 56.7629 198.703 67.2615 200.478 78.886C202.253 90.5104 199.461 102.368 192.682 112" stroke="#A0C51E" stroke-width="10" stroke-miterlimit="10"/>
<path d="M155 5V17" stroke="#A0C51E" stroke-width="10" stroke-miterlimit="10" stroke-linecap="round"/>
<path d="M235 86H224" stroke="#A0C51E" stroke-width="10" stroke-miterlimit="10" stroke-linecap="round"/>
<path d="M211 29L203 37" stroke="#A0C51E" stroke-width="10" stroke-miterlimit="10" stroke-linecap="round"/>
<path d="M143 166H63" stroke="#A0C51E" stroke-width="10" stroke-miterlimit="10" stroke-linecap="round"/>
<path d="M103 212H11" stroke="#A0C51E" stroke-width="10" stroke-miterlimit="10" stroke-linecap="round"/>
<path d="M143.333 166C146.428 166 149.395 164.788 151.583 162.632C153.771 160.475 155 157.55 155 154.5C155 151.45 153.771 148.525 151.583 146.368C149.395 144.212 146.428 143 143.333 143H120" stroke="#A0C51E" stroke-width="10" stroke-miterlimit="10" stroke-linecap="round"/>
<path d="M120 189H143.333C146.428 189 149.395 190.212 151.583 192.368C153.771 194.525 155 197.45 155 200.5C155 203.55 153.771 206.475 151.583 208.632C149.395 210.788 146.428 212 143.333 212H120" stroke="#A0C51E" stroke-width="10" stroke-miterlimit="10" stroke-linecap="round"/>
<path d="M143 189H63" stroke="#A0C51E" stroke-width="10" stroke-miterlimit="10" stroke-linecap="round"/>
<path d="M39.7643 183C41.2891 183 42.7515 182.396 43.8298 181.322C44.908 180.248 45.5138 178.791 45.5138 177.272C45.5138 175.753 44.908 174.296 43.8298 173.222C42.7515 172.148 41.2891 171.544 39.7643 171.544C34.0785 171.544 28.5204 169.865 23.7929 166.718C19.0654 163.571 15.3807 159.098 13.2048 153.865C11.029 148.631 10.4597 142.873 11.5689 137.317C12.6782 131.762 15.4161 126.659 19.4366 122.653C23.457 118.648 28.5794 115.92 34.1559 114.815C39.7324 113.71 45.5126 114.278 50.7655 116.445C56.0185 118.613 60.5083 122.284 63.6671 126.993C66.8259 131.703 68.512 137.24 68.512 142.905C68.512 144.424 69.1177 145.881 70.196 146.955C71.2742 148.029 72.7366 148.633 74.2615 148.633C75.7864 148.633 77.2488 148.029 78.327 146.955C79.4053 145.881 80.011 144.424 80.011 142.905C79.9962 133.324 76.538 124.064 70.2627 116.804C63.9873 109.544 55.3098 104.762 45.8013 103.325C47.1933 90.2138 53.5746 78.1325 63.6332 69.5649C73.6918 60.9972 86.6632 56.5944 99.8801 57.2619C113.097 57.9295 125.555 63.6166 134.692 73.1537C143.829 82.6908 148.952 95.3532 149.006 108.537C149.006 110.056 149.611 111.513 150.689 112.587C151.768 113.661 153.23 114.265 154.755 114.265H177.753C185.378 114.265 192.69 117.282 198.081 122.653C203.472 128.024 206.501 135.309 206.501 142.905C206.501 150.5 203.472 157.785 198.081 163.156C192.69 168.527 185.378 171.544 177.753 171.544C176.228 171.544 174.766 172.148 173.688 173.222C172.609 174.296 172.004 175.753 172.004 177.272C172.004 178.791 172.609 180.248 173.688 181.322C174.766 182.396 176.228 183 177.753 183C188.427 183 198.664 178.776 206.212 171.256C213.76 163.737 218 153.539 218 142.905C218 132.271 213.76 122.072 206.212 114.553C198.664 107.034 188.427 102.809 177.753 102.809H160.505C158.957 87.213 151.631 72.7512 139.956 62.2469C128.281 51.7427 113.096 45.9502 97.3642 46.0003C81.6329 46.0504 66.485 51.9394 54.8777 62.5177C43.2704 73.0961 36.037 87.6045 34.5897 103.21C24.5488 104.63 15.4162 109.775 9.01856 117.614C2.62092 125.454 -0.570076 135.41 0.0837964 145.493C0.737668 155.575 5.1882 165.04 12.5452 171.994C19.9023 178.948 29.6234 182.879 39.7643 183Z" fill="#00274E"/>
</svg>
