<svg width="172" height="52" viewBox="0 0 172 52" fill="none" xmlns="http://www.w3.org/2000/svg">
<path d="M57.0813 14.9639C64.4972 14.9639 69.6575 19.8511 69.6575 26.926C69.6575 33.9657 64.4292 38.887 56.8751 38.887H46.9307V14.9639H57.0813ZM52.33 34.3419H57.2172C61.2163 34.3419 64.155 31.3341 64.155 26.96C64.155 22.5508 61.0793 19.5102 56.9782 19.5102H52.33V34.3419Z" fill="white"/>
<path d="M91.2527 29.6935C91.2527 35.2979 87.2887 39.0919 81.4102 39.0919C75.4988 39.0919 71.5337 35.2979 71.5337 29.6935C71.5337 24.0552 75.4976 20.3291 81.4102 20.3291C87.2887 20.3291 91.2527 24.054 91.2527 29.6935ZM76.8311 29.7615C76.8311 32.7693 78.6765 34.8198 81.4102 34.8198C84.1098 34.8198 85.9905 32.7693 85.9905 29.7615C85.9905 26.7537 84.111 24.7032 81.4102 24.7032C78.6765 24.7043 76.8311 26.7537 76.8311 29.7615Z" fill="white"/>
<path d="M114.627 29.7966C114.627 35.3669 111.243 39.0919 106.083 39.0919C103.519 39.0919 101.504 38.0666 100.171 36.2211V38.8868H94.9072V13.5283H100.171V23.1997C101.469 21.3543 103.485 20.329 105.98 20.329C111.14 20.329 114.627 24.1231 114.627 29.7966ZM109.295 29.6243C109.295 26.6856 107.449 24.566 104.75 24.566C102.05 24.566 100.171 26.6505 100.171 29.6243C100.171 32.6661 102.05 34.7166 104.75 34.7166C107.449 34.7166 109.295 32.6321 109.295 29.6243Z" fill="white"/>
<path d="M118.247 38.8868V13.5283H123.51V38.8868H118.247Z" fill="white"/>
<path d="M145.687 31.3006H132.495C133.11 33.6241 134.888 34.9915 137.246 34.9915C138.989 34.9915 140.629 34.3084 141.893 33.0441L144.662 35.8469C142.817 37.8974 140.117 39.0937 136.802 39.0937C130.924 39.0937 127.199 35.3348 127.199 29.7644C127.199 24.0909 131.061 20.332 136.665 20.332C143.125 20.3297 146.131 24.6018 145.687 31.3006ZM140.766 28.1908C140.698 25.7642 139.126 24.1917 136.699 24.1917C134.376 24.1917 132.803 25.7642 132.393 28.1908H140.766Z" fill="white"/>
<path d="M159.424 14.9639C166.839 14.9639 172 19.8511 172 26.926C172 33.9657 166.772 38.887 159.217 38.887H149.273V14.9639H159.424ZM154.672 34.3419H159.56C163.559 34.3419 166.497 31.3341 166.497 26.96C166.497 22.5508 163.422 19.5102 159.321 19.5102H154.672V34.3419Z" fill="white"/>
<path d="M23.4543 0L20.6117 9.49449L23.8855 12.6476L25.5259 6.94248L39.016 20.9645L34.895 38.3764L32.7742 36.7078L31.1748 35.4518L28.3826 33.2454L26.6191 31.8581L19.8911 26.5607L21.4647 21.0829L18.0152 18.1325L15.0659 27.9656L25.5986 35.7388L27.3936 37.0676L30.2527 39.1802L31.8837 40.3824L36.5073 43.8003L41.9313 20.1138L23.4543 0Z" fill="white"/>
<path d="M25.198 45.5804L6.2453 33.5971L13.4584 11.066L16.5834 13.8348L18.7371 15.7365L22.1398 18.7396L24.0731 20.4468L30.2715 25.9376L28.9674 30.9935L31.7257 33.2479L33.8289 24.7986L25.1253 16.6786L23.2342 14.9081L19.9158 11.8101L17.8114 9.84858L10.8221 3.31738L0 35.5937L27.1911 51.4531L29.6845 41.4512L26.7962 39.396L25.198 45.5804Z" fill="white"/>
</svg>
