<svg width="68" height="68" viewBox="0 0 68 68" fill="none" xmlns="http://www.w3.org/2000/svg">
<path d="M31.3398 34.9998C31.3398 36.3517 30.84 36.988 29.9312 36.988C29.0453 36.988 28.5452 36.3175 28.5452 34.9998V30.592H26.8071V34.8633C26.8071 37.3058 27.9433 38.3737 29.8745 38.3737C31.8738 38.3737 33.0666 37.2489 33.0666 34.8861V30.5918H31.3398V34.9998Z" fill="#F8F8F8"/>
<path d="M38.1549 33.8637C37.8935 34.7384 37.6551 35.6473 37.4619 36.5673H37.4278C37.246 35.6132 37.0074 34.7382 36.7462 33.8294L35.8146 30.5918H33.9175L36.3713 38.2485H38.3933L40.972 30.5918H39.1316L38.1549 33.8637Z" fill="#F8F8F8"/>
<path d="M33.9999 0L0 33.9994L33.9999 68L68 33.9994L33.9999 0ZM50.0103 46.7298L47.1941 49.546L40.82 43.1719C39.415 44.1947 37.7742 44.9107 35.9913 45.2192V54.1864H32.0087V45.2173C30.2261 44.9088 28.5841 44.1956 27.1793 43.1728L20.8061 49.546L17.9899 46.7298L24.4084 40.3113C23.4506 38.9061 22.794 37.2818 22.5294 35.527H13.3495V31.5444H22.6153C22.9459 29.859 23.6402 28.3053 24.6148 26.9667L17.9897 20.3416L20.8059 17.5254L27.4753 24.1948C28.8132 23.2827 30.3493 22.6427 32.0085 22.3553V12.8852H35.991V22.3553C37.6502 22.6427 39.1863 23.2829 40.5242 24.1951L47.1939 17.5256L50.0101 20.3418L43.3852 26.9667C44.3598 28.3053 45.0537 29.859 45.3845 31.5447H54.6505V35.5272H45.4706C45.2057 37.2818 44.5494 38.9066 43.5918 40.3116L50.0103 46.7298Z" fill="#F8F8F8"/>
</svg>
